<mxfile host="app.diagrams.net" modified="2023-05-11T08:14:31.515Z" agent="Mozilla/5.0 (Macintosh; Intel Mac OS X 10_15_7) AppleWebKit/537.36 (KHTML, like Gecko) Chrome/113.0.0.0 Safari/537.36" version="21.2.9" etag="fsW2PD3OLXrJnaWz3N90" type="github">
  <diagram name="第 1 页" id="NajveScSe4lcoSnFjiGo">
    <mxGraphModel>
      <root>
        <mxCell id="0" />
        <mxCell id="1" parent="0" />
      </root>
    </mxGraphModel>
  </diagram>
</mxfile>
